# xmcd
#
# Track frame offsets:
#	150
#	18762
#	45557
#	56024
#	74263
#	99875
#	132662
#	151308
#	163032
#	205488
#	219975
#	253384
#	282369
#	307861
#	334154
#
# Disc length: 4799 seconds
#
# Revision: 1
# Processed by: cddbd v1.5.1PL2 Copyright (c) Steve Scherf et al.
# Submitted via: audiograbber 1.83.01
#
DISCID=d812bd0f
DTITLE=Miles Davis - That Old Black Magic, cd2
DYEAR=2004
DGENRE=Blues
TTITLE0=Conception
TTITLE1=Rays idea
TTITLE2=That old black magic
TTITLE3=Max is making wax
TTITLE4=Woody n you
TTITLE5=Ornithology
TTITLE6=Embraceable you
TTITLE7=Milestones
TTITLE8=Scrapple the apple
TTITLE9=Bird of paradise
TTITLE10=Down
TTITLE11=The squirrel
TTITLE12=Lady bird
TTITLE13=Confirmation
TTITLE14=Out of the blue
EXTD=
EXTT0=
EXTT1=
EXTT2=
EXTT3=
EXTT4=
EXTT5=
EXTT6=
EXTT7=
EXTT8=
EXTT9=
EXTT10=
EXTT11=
EXTT12=
EXTT13=
EXTT14=
PLAYORDER=
